{"title":"Ant-Man {2015} CAM XViD AC3-MRG","uid":12158731,"size":1522617122,"categoryP":"video","categoryS":"movies","magnet":"?xt=urn:btih:be58c6d5af7558426aff3e06851114d332f09246&amp;dn=Ant-Man+%7B2015%7D+CAM+XViD+AC3-MRG&amp;tr=udp%3A%2F%2Ftracker.openbittorrent.com%3A80&amp;tr=udp%3A%2F%2Fopen.demonii.com%3A1337&amp;tr=udp%3A%2F%2Ftracker.coppersurfer.tk%3A6969&amp;tr=udp%3A%2F%2Fexodus.desync.com%3A6969","seeders":2,"leechers":0,"uploader":"SaM","files":14,"time":1437835883,"description":"Ant-Man {2015} CAM XViD AC3-MRG\n\nFormat : AVI\nFormat/Info : Audio Video Interleave\nFile size : 1.42 GiB\nDuration : 1h 42mn\nOverall bit rate : 1 985 Kbps\nWriting library : VirtualDub build 35491/release\n\nVideo\nID : 0\nFormat : MPEG-4 Visual\nFormat profile : Advanced Simple@L5\nFormat settings, BVOP : 2\nFormat settings, QPel : No\nFormat settings, GMC : No warppoints\nFormat settings, Matrix : Default (H.263)\nMuxing mode : Packed bitstream\nCodec ID : XVID\nCodec ID/Hint : XviD\nDuration : 1h 42mn\nBit rate : 1 845 Kbps\nWidth : 720 pixels\nHeight : 304 pixels\nDisplay aspect ratio : 2.35:1\nFrame rate : 29.970 fps\nColor space : YUV\nChroma subsampling : 4:2:0\nBit depth : 8 bits\nScan type : Progressive\nCompression mode : Lossy\nBits/(Pixel*Frame) : 0.281\nStream size : 1.32 GiB (93%)\nWriting library : XviD 73\n\nAudio\nID : 1\nFormat : AC-3\nFormat/Info : Audio Coding 3\nMode extension : CM (complete main)\nFormat settings, Endianness : Big\nCodec ID : 2000\nDuration : 1h 42mn\nBit rate mode : Constant\nBit rate : 128 Kbps\nChannel(s) : 2 channels\nChannel positions : Front: L R\nSampling rate : 44.1 KHz\nBit depth : 16 bits\nCompression mode : Lossy\nStream size : 93.5 MiB (6%)\nAlignment : Split accross interleaves\nInterleave, duration : 33 ms (1.00 video frame)\nInterleave, preload duratio : 500 ms\n &lt;a href=&quot;\nhttp://extraimago.com/image/Et9&quot; rel=&quot;nofollow&quot; target=&quot;_NEW&quot;&gt;\nhttp://extraimago.com/image/Et9&lt;/a&gt; &lt;a href=&quot;\nhttp://extraimago.com/image/Etb&quot; rel=&quot;nofollow&quot; target=&quot;_NEW&quot;&gt;\nhttp://extraimago.com/image/Etb&lt;/a&gt; &lt;a href=&quot;\nhttp://extraimago.com/image/EtI&quot; rel=&quot;nofollow&quot; target=&quot;_NEW&quot;&gt;\nhttp://extraimago.com/image/EtI&lt;/a&gt; &lt;a href=&quot;\nhttp://extraimago.com/image/EtR&quot; rel=&quot;nofollow&quot; target=&quot;_NEW&quot;&gt;\nhttp://extraimago.com/image/EtR&lt;/a&gt; &lt;a href=&quot;\nhttp://extraimago.com/image/EtL&quot; rel=&quot;nofollow&quot; target=&quot;_NEW&quot;&gt;\nhttp://extraimago.com/image/EtL&lt;/a&gt; &lt;a href=&quot;\nhttp://extraimago.com/image/Ety&quot; rel=&quot;nofollow&quot; target=&quot;_NEW&quot;&gt;\nhttp://extraimago.com/image/Ety&lt;/a&gt; &lt;a href=&quot;\nhttp://extraimago.com/image/Etq&quot; rel=&quot;nofollow&quot; target=&quot;_NEW&quot;&gt;\nhttp://extraimago.com/image/Etq&lt;/a&gt; &lt;a href=&quot;\nhttp://extraimago.com/image/EtS&quot; rel=&quot;nofollow&quot; target=&quot;_NEW&quot;&gt;\nhttp://extraimago.com/image/EtS&lt;/a&gt; &lt;a href=&quot;\nhttp://extraimago.com/image/EtO&quot; rel=&quot;nofollow&quot; target=&quot;_NEW&quot;&gt;\nhttp://extraimago.com/image/EtO&lt;/a&gt; &lt;a href=&quot;\nhttp://extraimago.com/image/EtE&quot; rel=&quot;nofollow&quot; target=&quot;_NEW&quot;&gt;\nhttp://extraimago.com/image/EtE&lt;/a&gt;","torrent":{"xt":"urn:btih:be58c6d5af7558426aff3e06851114d332f09246","amp;dn":"Ant-Man+%7B2015%7D+CAM+XViD+AC3-MRG","amp;tr":["udp%3A%2F%2Ftracker.openbittorrent.com%3A80","udp%3A%2F%2Fopen.demonii.com%3A1337","udp%3A%2F%2Ftracker.coppersurfer.tk%3A6969","udp%3A%2F%2Fexodus.desync.com%3A6969"],"infoHash":"be58c6d5af7558426aff3e06851114d332f09246","infoHashBuffer":{"type":"Buffer","data":[190,88,198,213,175,117,88,66,106,255,62,6,133,17,20,211,50,240,146,70]},"announce":[],"urlList":[]}}